<?xml version="1.0" encoding="utf-8"?>
<!-- Generator: Adobe Illustrator 19.0.0, SVG Export Plug-In . SVG Version: 6.00 Build 0)  -->
<svg version="1.1" id="Layer_2" xmlns="http://www.w3.org/2000/svg" xmlns:xlink="http://www.w3.org/1999/xlink" x="0px" y="0px"
	 viewBox="-151 312 308 170" style="enable-background:new -151 312 308 170;" xml:space="preserve">
<style type="text/css">
	.st0{fill:#D91C5C;}
	.st1{fill:none;}
	.st2{fill:#231F20;}
	.st3{fill:#FFCA05;}
	.st4{fill:#034EA1;}
	.st5{fill:#0DB04B;}
	.st6{fill:#EC1C24;}
</style>
<g>
	<g>
		<path class="st0" d="M-70.2,407.7c0,2.5-3.4,4.6-7.8,4.6c-4.9,0-4.8-1.4-6.6-7.5h-9.8c-1.4,6-1.3,7.5-6.1,7.5
			c-4.2,0-7.1-2-7.1-4.6c0-0.4,0.1-0.7,0.2-1.1l9-26.3c0.6-1.7,0.9-3,0.9-3.8c0-1.8-1.2-2.8-1.2-3.5c0-2.3,5.3-4.1,8.1-4.1
			c4.4,0,8.5,3,10.6,8.9c0.5,1.4,1.5,4.4,3.1,9.2l4.4,13.2c1.4,4.1,2,6.1,2,6.2C-70.3,407-70.2,407.4-70.2,407.7z M-86.4,397.2
			l-3.3-16.1h-0.2c-0.6,2.2-3,14.9-3.2,16.1H-86.4z"/>
	</g>
	<g>
		<path class="st0" d="M-35.1,397c0,8-4.2,15.4-11.4,15.4c-3.5,0-6.2-1.6-8.2-4.8H-55l0.1,9.6c0,1.6,0.1,2.5,0.1,2.6
			c0,3.8-3.2,5.1-6.1,5.2H-61c-2.9-0.1-6.2-1.5-6.1-5.2l0.1-6.5c0.1-4.4,0.1-7.2,0.1-8.4v-10.8c0-8.4-2.9-7.3-2.9-8.4
			c0-1.9,4-4.3,6.9-4.3c3.8,0,6.8,2.3,7.7,6.1h0.2c2.2-4.1,5.1-6.1,8.8-6.1C-39.4,381.4-35.1,389-35.1,397z M-51.1,404.7
			c2.7,0,4.3-3.5,4.3-7.7c0-4.4-1.6-7.7-4.3-7.7c-2.7,0-4.3,3.3-4.3,7.7c0,2.2,0.4,4.1,1.1,5.6C-53.5,403.9-52.4,404.7-51.1,404.7z"
			/>
	</g>
	<g>
		<path class="st0" d="M-2.2,401.9c0.1,3.5,0.2,5.3,0.2,5.4c0,3.7-3.1,5.1-6,5.2h-0.1c-2.8-0.1-6-1.4-6-5.2c0-0.1,0-1.5,0.1-4.2
			l0.2-8.8c0.1-3.1,0.1-5.3,0.1-6.4h-4c-0.5,7.4-0.9,12.4-1.4,14.8c-1.2,6.5-4.3,9.8-9.4,9.8c-3.4,0-5.9-2.5-5.9-4
			c0-1,2.6-1,4.9-9.7c0.6-2.3,1.7-12.1,1.7-11.8c0-5.9,7.7-5.7,12.7-5.7c2.4,0,4.9,0.2,7.5,0.5v0.1c2.8,0.2,5.5,1.8,5.5,5.1
			l-0.1,8.3C-2.4,396.2-2.4,398.3-2.2,401.9z"/>
	</g>
	<g>
		<path class="st0" d="M30.1,403c0,2.1-5.2,9.5-13.8,9.5c-8.5,0-15.5-7-15.5-15.5s6.7-15.5,16.2-15.5c8.5,0,13.4,5.3,13.4,9.9
			c0,7.1-6.4,9.2-12.8,9.2c-1.8,0-3.5-0.1-5.1-0.4c1.1,3.2,3.9,4.9,8,4.9c2.8,0,5.6-0.9,8.5-2.5c0.2-0.1,0.3-0.2,0.5-0.2
			c0.1,0,0.2,0.1,0.3,0.1C30,402.6,30.1,402.8,30.1,403z M12.1,395.1c0.5,0.1,1,0.1,1.5,0.1c4,0,6.1-1.7,6.1-4.5
			c0-1.5-1.2-2.7-2.9-2.7c-0.2,0-0.1,0.1-0.2,0.1h-0.2c-0.5,0.1-0.9,0.2-1.4,0.5C13.4,389.5,12.4,391.7,12.1,395.1z"/>
	</g>
	<g>
		<path class="st0" d="M97.3,408.3c0,2-4.2,4.3-6.9,4.3c-3.9,0-7-2.4-7.7-6.5c-2.2,4.5-5.8,6.5-9.2,6.5c-4.3,0-7.8-3.9-7.8-9.4v-8.9
			c0-3.6-3-5.6-6.4-5.6c-3.2,0-7.1,2-8.2,5.4c0.3,0,0.6-0.1,0.9-0.1c2.2,0.1,3.8,0.8,5.1,2.3c0.9,1.1,2.2,5.3,4.2,7.8
			c1,1.3,5,3.8,5,4.1c0,1.7-4.5,4.3-7.8,4.3c-11.6,0-8.5-13-12.1-13.4c0.1,5.2,0.2,7.9,0.2,8.2c0,3.7-3.2,5.2-6,5.2h-0.1
			c-2.7,0-5.9-1.4-5.9-5.2c0-0.1,0.1-2.2,0.2-6.3c0.1-4,0.2-6.4,0.2-7c0-8.4-3.3-7.2-3.3-8.4c0-1.9,4-4.3,6.8-4.3
			c4.6,0,7.9,3.4,7.9,8.6v4.8c0.2-0.1,0.5-0.2,0.9-0.2c0.1-2.2,2-13.5,15.6-13.5c8.1,0,14.3,4.9,14.3,13.2v7.3c0.1,2.1,0.7,3,2,3
			c1.5,0,3.3-2.4,3.4-5.9c-0.1-7.8-0.1-11.8-0.1-12c0-3.8,3.4-5.2,6-5.2h0.1c2.7,0,6,1.5,6,5.2c0,0.2-0.1,2.2-0.2,6.3
			c-0.2,4-0.2,6.3-0.2,6.9C93.9,408.3,97.3,407.1,97.3,408.3z"/>
	</g>
	<g>
		<path class="st0" d="M133,408.2c0,1.9-4,4.2-6.9,4.2c-4.7,0-8-3.3-8-8.5V400h-5.6c0-0.4,0.2,7.4,0.2,7.2c0,3.7-3.1,5.1-6,5.2h-0.1
			c-2.9-0.1-6-1.5-6-5.2c0-0.1,0-1.1,0.1-3l0.2-6.1c0.1-2.1,0.1-3.5,0.1-4c0-8.4-3.3-7.2-3.3-8.4c0-1.9,4-4.3,6.8-4.3
			c4.7,0,8,3.4,8,8.6v3.3h5.6c0-0.5,0-1.7-0.1-3.7s-0.1-3-0.1-3.1c0-3.6,3.2-5.1,5.9-5.1h0.1c2.7,0,5.8,1.6,5.8,5.1
			c0-1.1-0.2,13.3-0.2,13.2C129.6,408.1,133,407.2,133,408.2z"/>
	</g>
</g>
<g>
	<g>
		<path class="st0" d="M3.8,456.1L3.8,456.1c0,3.8-3.1,5.2-5.9,5.2h-0.1c-5.7,0.6-13,0.8-21.6,0.8c-6.9,0-12.9-0.3-17.6-0.8
			c-2.8-0.1-5.8-1.6-5.7-5.2l0.2-26.7c-0.6-6.4-3.5-5.3-3.5-6.4c0-1.9,4.5-4.4,7.6-4.4c4.6,0,8.1,3.1,8.1,9.2l-0.1,25.8h7.1v-11.3
			c-0.2-11.9-0.3-18.1-0.3-18.5c0-3.7,3.4-5.2,6.2-5.2h0.1c2.7,0,6.1,1.5,6.1,5.2l-0.1,29.7h7.2v-11.3c0-12.1-0.1-18.3-0.1-18.5
			c0-3.8,3.3-5.2,6.2-5.2h0.1c2.7,0,6.1,1.5,6.1,5.2l-0.1,18.5C3.9,451.5,3.9,456.1,3.8,456.1z"/>
	</g>
	<g>
		<path class="st0" d="M26.9,462.1c-11.8,0-19.7-9.7-19.7-21.5S15.3,419,26.9,419c11.8,0,19.7,9.9,19.7,21.6
			C46.6,452.5,38.9,462.1,26.9,462.1z M26.9,455.7c4.6,0,6.9-8.9,6.9-15.1c0-7-2.8-15.2-6.9-15.2c-4.1,0-6.8,8.2-6.8,15.2
			C20.1,446.8,22.6,455.7,26.9,455.7z"/>
	</g>
	<g>
		<path class="st0" d="M81.3,443.3c-0.7,12.5-7.6,19.2-18.3,19.2c-7,0-12.2-3-12.2-9c0-3.6,2.7-6,6.6-6c2.3,0,4.9,1.6,4.9,2.7
			c-0.4,1.1-0.6,2.1-0.6,3c0,2.3,1.3,3.6,3,3.6c3.8,0,4.5-5.2,4.5-8.8v-1.9c0-0.6-0.1-3.3-0.1-3.3c-2,2.7-5.1,4-8.1,4
			c-5.1,0-10-4-10.4-10.7l-0.2-2.8c-0.4-9.5-4.5-8-4.5-9.4c0-2,4.3-4.6,7.4-4.6c5.2,0,9.3,3.9,9.6,9.5l0.2,6.4
			c0,2.6,1.2,3.8,2.6,3.8c1.5,0,3.1-1.5,3.1-4.4c0-1.8-0.2-9.9-0.2-9.9c0-4.2,4.1-5,6.4-5.2h0.1c2.3,0.1,6.4,1.1,6.4,5.2
			C81.7,432.7,81.6,439,81.3,443.3z"/>
	</g>
</g>
<g>
	<path d="M-39.1,373.2l-2.8-9H-42c0.1,1.8,0.1,3,0.1,3.6v5.3h-2.2v-11.3h3.3l2.7,8.7l0,0l2.9-8.7h3.3v11.4H-34v-5.4
		c0-0.3,0-0.5,0-0.9c0-0.3,0-1.2,0.1-2.7H-34l-2.9,8.9h-2.2V373.2z"/>
	<path d="M-18.5,367.5c0,1.9-0.5,3.3-1.4,4.4c-0.9,1-2.3,1.5-4,1.5s-3.1-0.5-4-1.5s-1.4-2.5-1.4-4.4s0.5-3.4,1.4-4.4s2.3-1.5,4-1.5
		c1.8,0,3.1,0.5,4,1.5C-18.9,364.1-18.5,365.6-18.5,367.5z M-26.8,367.5c0,1.3,0.2,2.2,0.7,2.9c0.5,0.6,1.2,1,2.2,1
		c1.9,0,2.9-1.3,2.9-3.9s-1-3.9-2.9-3.9c-1,0-1.7,0.3-2.2,1C-26.6,365.3-26.8,366.2-26.8,367.5z"/>
	<path d="M-11.2,363.6c-0.9,0-1.6,0.3-2.1,1c-0.5,0.7-0.8,1.6-0.8,2.9c0,2.5,1,3.8,2.9,3.8c0.8,0,1.8-0.2,2.9-0.6v2
		c-0.9,0.4-2,0.6-3.1,0.6c-1.7,0-2.9-0.5-3.8-1.5c-0.9-1-1.3-2.5-1.3-4.3c0-1.2,0.2-2.2,0.6-3.1c0.4-0.9,1.1-1.6,1.9-2.1
		c0.8-0.5,1.8-0.7,2.8-0.7c1.1,0,2.2,0.3,3.3,0.8l-0.8,2c-0.4-0.2-0.9-0.4-1.3-0.5C-10.4,363.7-10.8,363.6-11.2,363.6z"/>
	<path d="M3.4,373.2H0.6l-4.1-5.8v5.8h-2.4v-11.4h2.4v5.5l4.1-5.5h2.6l-4.2,5.5L3.4,373.2z"/>
	<path d="M15.2,367.5c0,1.9-0.5,3.3-1.4,4.4c-0.9,1-2.3,1.5-4,1.5s-3.1-0.5-4-1.5s-1.4-2.5-1.4-4.4s0.5-3.4,1.4-4.4s2.3-1.5,4-1.5
		c1.8,0,3.1,0.5,4,1.5C14.8,364.1,15.2,365.6,15.2,367.5z M6.9,367.5c0,1.3,0.2,2.2,0.7,2.9c0.5,0.6,1.2,1,2.2,1
		c1.9,0,2.9-1.3,2.9-3.9s-1-3.9-2.9-3.9c-1,0-1.7,0.3-2.2,1C7.1,365.3,6.9,366.2,6.9,367.5z"/>
	<path d="M17.6,361.8h3.6c1.6,0,2.8,0.2,3.5,0.7s1.1,1.2,1.1,2.2c0,0.7-0.2,1.2-0.5,1.7s-0.7,0.7-1.3,0.8v0.1
		c0.7,0.2,1.2,0.5,1.6,0.9c0.3,0.4,0.5,1,0.5,1.8c0,1-0.4,1.9-1.1,2.4c-0.8,0.6-1.8,0.9-3.1,0.9h-4.3V361.8z M20,366.3h1.4
		c0.7,0,1.1-0.1,1.4-0.3c0.3-0.2,0.4-0.5,0.4-1c0-0.4-0.2-0.8-0.5-0.9c-0.3-0.2-0.8-0.3-1.5-0.3H20V366.3z M20,368.2v3h1.6
		c0.7,0,1.2-0.1,1.5-0.4c0.3-0.3,0.5-0.6,0.5-1.2c0-0.9-0.7-1.4-2-1.4C21.6,368.2,20,368.2,20,368.2z"/>
	<path d="M33.2,363.6c-0.9,0-1.6,0.3-2.1,1c-0.5,0.7-0.8,1.6-0.8,2.9c0,2.5,1,3.8,2.9,3.8c0.8,0,1.8-0.2,2.9-0.6v2
		c-0.9,0.4-2,0.6-3.1,0.6c-1.7,0-2.9-0.5-3.8-1.5c-0.9-1-1.3-2.5-1.3-4.3c0-1.2,0.2-2.2,0.6-3.1c0.4-0.9,1.1-1.6,1.9-2.1
		c0.8-0.5,1.8-0.7,2.8-0.7c1.1,0,2.2,0.3,3.3,0.8l-0.8,2c-0.4-0.2-0.9-0.4-1.3-0.5C34,363.7,33.6,363.6,33.2,363.6z"/>
	<path d="M47.8,373.2H45l-4.1-5.8v5.8h-2.4v-11.4h2.4v5.5l4.1-5.5h2.6l-4.2,5.5L47.8,373.2z"/>
	<path d="M49.3,361.8h2.2v5.5v1.5l-0.1,1.7l0,0l5.3-8.7h2.9v11.4h-2.2v-5.5c0-0.7,0-1.8,0.1-3.3h-0.1l-5.3,8.8h-2.9v-11.4H49.3z"/>
	<path d="M62.5,361.8h2.2v5.5v1.5l-0.1,1.7l0,0l5.3-8.7h2.9v11.4h-2.2v-5.5c0-0.7,0-1.8,0.1-3.3h-0.1l-5.3,8.8h-2.9v-11.4H62.5z
		 M71.4,358.1c-0.1,1-0.5,1.7-1.1,2.1c-0.6,0.4-1.6,0.7-2.8,0.7s-2.1-0.2-2.7-0.6c-0.6-0.4-0.9-1.1-1-2.2h2.1c0,0.5,0.2,0.9,0.4,1.1
		c0.2,0.2,0.6,0.3,1.2,0.3c0.5,0,0.9-0.1,1.2-0.4c0.3-0.2,0.4-0.6,0.5-1.1h2.2V358.1z"/>
	<path d="M84.2,373.2h-2.4v-9.4h-3.1v-2h8.6v2h-3.1V373.2z"/>
	<path d="M95.6,373.2H89v-11.4h6.6v2h-4.2v2.5h3.9v2h-3.9v2.9h4.2V373.2z"/>
	<path d="M105,373.2l-0.8-2.7H100l-0.8,2.7h-2.6l4-11.5h3l4,11.5H105z M103.6,368.5c-0.8-2.5-1.2-3.9-1.3-4.2
		c-0.1-0.3-0.2-0.6-0.2-0.8c-0.2,0.7-0.7,2.3-1.5,4.9h3V368.5z"/>
	<path d="M113.5,373.2H111v-9.4h-3.1v-2h8.6v2h-3.1v9.4H113.5z"/>
	<path d="M126.2,365.4c0,1.2-0.4,2.2-1.2,2.8c-0.8,0.7-1.9,1-3.3,1h-1v4.1h-2.4v-11.5h3.6c1.4,0,2.4,0.3,3.2,0.9
		C125.8,363.3,126.2,364.2,126.2,365.4z M120.7,367.2h0.8c0.7,0,1.3-0.1,1.7-0.4c0.4-0.3,0.6-0.7,0.6-1.3s-0.2-1-0.5-1.3
		c-0.3-0.3-0.8-0.4-1.5-0.4h-1.1V367.2z"/>
</g>
<g>
	<g>
		<g>
			<path class="st1" d="M-107,334.6c-0.4-1.6-1.8-2.7-3.4-2.5c-1.9,0.1-3.1,1.7-3,3.5c0,0.2,0.1,0.3,0.1,0.5
				c0.4,1.6,1.9,2.7,3.4,2.5c0.9-0.1,1.6-0.5,2.2-1.1c0.4-0.4,0.6-0.9,0.7-1.4c0.1-0.3,0.1-0.7,0.1-1
				C-106.9,334.9-107,334.8-107,334.6L-107,334.6z"/>
			<path class="st2" d="M-54.6,373.1c0.2-2.7,0.3-6-0.2-8.3c-0.6-2.4-1.5-8.9-7.3-13.5c-3.8-3.1-7.3-4.3-10.7-4.3
				c-1.2,0-2.4,0.2-3.6,0.4c-0.9-5.6-3.3-8.8-7.1-11.7c-3.9-3.1-9.7-3.4-11.8-3.4c-0.5,0-0.8,0-0.8,0c-3.2,0.2-7.2,1.2-10.1,2.2
				c-0.4-1.8-2.2-3.2-4.2-3.1c-2.2,0.2-3.8,2.1-3.7,4.3c0,0.2,0.1,0.4,0.1,0.6c0.4,1.8,2.2,3.2,4.2,3.1c1.8-0.2,3.2-1.4,3.6-3.1
				c6.2,0.6,8.6,3.7,9.6,6.2c-2.1-1-4.4-1.6-6.7-1.6c-0.2,0-0.3,0-0.5,0c-6.1,0.5-9,2.7-11.5,5.1c-0.1,0.1-0.2,0.2-0.4,0.3l-0.1,0.1
				c-0.3,0.3-0.6,0.6-0.8,0.8c-4,4.4-5.7,10.2-6.3,12.6c-1.9,0-3.6,1.4-4,3.4c-0.3,2.2,1.2,4.2,3.3,4.6c0.2,0,0.4,0,0.6,0
				c1.9,0,3.6-1.4,4-3.4c0.2-1.6-0.5-3.2-1.8-4c1.5-2.2,4.8-4.6,7.7-5.1c0.8-0.1,1.5-0.2,2.1-0.2c0,0,0,0,0.1,0h0.1
				c1.5,0,2.9,0.5,4.8,1.9c1.8,1.3,2.8,3.5,3.4,5.3c-0.9,0-1.9,0-2.8,0c-0.4,0-0.8,0.2-1.1,0.6c-0.5,0.8-0.1,2,0.1,2.6
				c0.1,0.3,0.5,1.2,0.6,1.8c0.3,1.9-0.1,3.6-0.1,3.6c-0.2,0.8,0,1.5,0.4,2.1s1.1,0.9,1.9,0.9c0.1,0,0.2,0,0.3,0
				c0,0,2.4-0.2,5.5-0.2c2.9,0,5.4,0.2,7.5,0.5c0.3,0,0.5,0.1,0.8,0.1s0.6,0.1,0.8,0.1c5.8,0.9,12.4,3.7,12.5,3.7
				c0.4,0.1,0.7,0.2,1.1,0.2c1.3,0,2.2-0.9,2.3-2.3c0,0,0.2-1.8,1-3.5c0.3-0.6,0.9-1.3,1.1-1.5c0.5-0.5,1.2-1.5,0.9-2.5
				c-0.1-0.4-0.4-0.8-0.9-0.9c0,0-0.9-0.3-2.3-0.7c2.1-3.5,5.6-4.5,7.5-4.5c0.1,0,0.2,0,0.3,0c2.1,0.2,5,1.7,6.9,4.7
				c1.2,1.8,2,4.2,2.6,6.2c-1.8,0.5-3,2.1-3.1,4c0.1,2.2,1.6,3.9,4.1,3.9c0.9,0,3.7-0.8,3.9-4.1C-50.8,374.7-52.6,373.3-54.6,373.1z
				"/>
		</g>
		<path class="st3" d="M-122.5,360.5c-0.2,0-0.3,0-0.5,0h-0.1c-1.5,0.1-2.9,1.1-3.1,2.7c-0.3,1.8,0.9,3.4,2.7,3.7c0.2,0,0.3,0,0.5,0
			c1.6,0,3-1.2,3.2-2.7c0.1-0.9-0.1-1.7-0.6-2.4c-0.2-0.3-0.6-0.6-0.9-0.9C-121.7,360.8-122.1,360.6-122.5,360.5z"/>
	</g>
	<path class="st4" d="M-89.8,363c0.5,0.1,0.9,0.1,1.3,0.2c0.3,0,0.5,0.1,0.7,0.1c0.5,0.1,1,0.2,1.5,0.3c0-2-0.3-4.6-0.9-7.3
		c-0.1-0.3-0.2-0.6-0.3-0.9c0-0.2-0.1-0.3-0.1-0.5c-0.1-0.2-0.1-0.4-0.2-0.6c-0.5-1.4-1-2.7-1.8-4c-1.4-2.3-3.2-4.3-5.3-5.7
		c-0.4-0.3-0.8-0.5-1.2-0.8c-2.2-1.3-4.7-2-7.2-2c-5.6,0.4-7.8,1.6-11.5,4.9c-4.7,4.2-6.3,10.3-7,13c1.6-2.4,5.1-5,8.4-5.6
		c0.7-0.1,1.5-0.2,2.4-0.2c2,0,3.6,0.6,5.6,2.1c2.1,1.6,3.3,4.2,3.9,6.2C-97,362.3-92.8,362.6-89.8,363z"/>
	<g>
		<g>
			<path class="st5" d="M-74.1,366.6c2.3-4.2,6.5-5.4,8.7-5.4c0.1,0,0.3,0,0.4,0c2.8,0.2,5.8,2.3,7.7,5.2c0.7,1.2,1.4,2.7,1.9,4.1
				c0-2-0.1-4-0.4-5.5c0-0.2,0-0.5-0.1-0.7c-0.6-2.7-1.8-8.2-6.8-12.2c-3.5-2.7-6.7-4-10.1-4c-1.6,0-3.2,0.3-4.9,0.9
				c-3.4,1-6.7,4.2-8.6,6.3c0.9,3.2,1.2,6.3,1.2,8.5C-81,364.7-76.8,365.8-74.1,366.6z"/>
			<g>
				<path class="st3" d="M-74.6,367.6c-2.9-0.9-6.6-1.9-10.6-2.7c-0.4-0.1-0.7-0.1-1.1-0.2c-0.2,0-0.5-0.1-0.7-0.1
					c-0.3-0.1-0.7-0.1-1.1-0.2c-0.2-0.1-0.4-0.1-0.6-0.1c-0.2,0-0.3,0-0.5-0.1c-0.3,0-0.5-0.1-0.8-0.1c-4-0.6-8-0.8-11.2-0.9
					c-0.4,0-0.8,0-1.2,0c-1,0-1.9,0-2.6,0c-0.5,0-0.5,0-0.5,0c-0.5,0-0.5,0.8,0,2c0,0,0.5,1.2,0.6,2.1c0.3,2.1-0.2,4-0.2,4
					c-0.3,1,0.3,1.8,1.3,1.8c0.1,0,0.1,0,0.2,0c0,0,2.4-0.2,5.6-0.2c2.4,0,5.1,0.1,7.7,0.5c0.3,0,0.5,0.1,0.8,0.1s0.5,0.1,0.8,0.1
					c6,1,12.7,3.8,12.7,3.8c0.3,0.1,0.5,0.1,0.7,0.1c0.7,0,1.2-0.6,1.3-1.4c0,0,0.2-2,1.1-3.9c0.4-0.9,1.2-1.8,1.2-1.8
					c0.7-0.8,0.9-1.6,0.5-1.7c0,0,0,0-0.5-0.2c-0.6-0.2-1.2-0.4-1.9-0.6C-74,367.8-74.3,367.7-74.6,367.6z"/>
				<path class="st6" d="M-89.9,347.8c0.4,0.6,0.9,1.2,1.2,1.8c0.8,1.4,1.4,2.8,1.9,4.3c2.1-2.2,5.3-5.1,8.7-6.1
					c0.2-0.1,0.4-0.1,0.6-0.2c-0.9-5.6-3.2-8.5-6.7-11.2c-3.5-2.8-8.9-3.1-11.1-3.1c-2.3-0.1-6.9,1.1-9.6,2c3,0.5,5.4,1.6,7.2,3.4
					c1.4,1.4,2.1,3,2.5,4.3C-93.2,344.3-91.4,345.9-89.9,347.8z"/>
			</g>
		</g>
	</g>
	<path class="st3" d="M-107,336.1c-0.1,0.5-0.3,1-0.7,1.4c-0.6,0.6-1.3,1-2.2,1.1c-1.5,0.2-3-0.9-3.4-2.5c0-0.2-0.1-0.3-0.1-0.5
		c-0.1-1.8,1.1-3.4,3-3.5c1.6-0.2,3,0.9,3.4,2.5c0,0,0.1,0.3,0.1,0.5C-106.9,335.4-106.9,335.8-107,336.1z"/>
	<path class="st3" d="M-52.5,374.8c-0.5-0.5-1.3-0.8-2-0.9c-0.1,0-0.5,0-1,0.1c-1.5,0.4-2.6,1.7-2.5,3.2c0.1,1.8,1.5,3.2,3.4,3.1
		c1.1,0,3.1-1.1,3.1-3.4C-51.5,376.1-51.8,375.4-52.5,374.8z"/>
</g>
</svg>
