<?xml version="1.0" encoding="utf-8"?>
<!-- Generator: Adobe Illustrator 19.0.0, SVG Export Plug-In . SVG Version: 6.00 Build 0)  -->
<svg version="1.1" id="Layer_3" xmlns="http://www.w3.org/2000/svg" xmlns:xlink="http://www.w3.org/1999/xlink" x="0px" y="0px"
	 viewBox="-240 374 130 45" style="enable-background:new -240 374 130 45;" xml:space="preserve">
<style type="text/css">
	.st0{fill:url(#SVGID_1_);}
</style>
<linearGradient id="SVGID_1_" gradientUnits="userSpaceOnUse" x1="-236.822" y1="401.5" x2="-83.2238" y2="401.5" gradientTransform="matrix(1 0 0 -1 0 798)">
	<stop  offset="0" style="stop-color:#005429"/>
	<stop  offset="0.1315" style="stop-color:#005A2C"/>
	<stop  offset="0.2873" style="stop-color:#036A33"/>
	<stop  offset="0.4778" style="stop-color:#1F7F3A"/>
	<stop  offset="0.6318" style="stop-color:#3D8439"/>
	<stop  offset="0.7734" style="stop-color:#518737"/>
	<stop  offset="0.8969" style="stop-color:#5D8B35"/>
	<stop  offset="1" style="stop-color:#618B35"/>
</linearGradient>
<path class="st0" d="M-120.2,396.1c-2.1-0.1-4.9,0.3-6.3,0.5c1.1,1.2,6.7,1,12,2c-1.5,0.9-3.7,1.2-4.3,1.6c0.5,0,2.1,0.4,2.6,0.3
	c-2,1.2,0.5,0.7,1.5,1.1c-1,0.4-1.7,0.5-2.8,0.6l3.6,0.8c-0.5,0.1-5.9,0.5-7.7,0.5c0.9,0,3.8,1.8,4.3,2.3c-0.5,0-1.1-0.1-1.7-0.1
	c-2.6-0.3-9.7,0.6-10.6,0.6c1.8,0.9,4.5,1.8,6.2,1.9c-1,0.2-1,0.6-1.7,0.8c0.6,0.1,2.8,0.6,3.2,0.7c1.1,0.4,1.5,0.8,2.3,1.2
	c-1,0.1-1.3,0.6-2.7,0.5l0.3,0.7c-1.1-0.2-10.1-0.5-11.5-0.3c0.6,0.7,2.3,0.6,3.5,1.1c0.7,0.2,1.3,0.8,1.8,1.1
	c-6.8,0.7-14.4,0.5-21.2,0.3c-5.5-0.2-24.9,0-29.4,0c-9.1,0-18.5-0.1-28.1,0.4c-1.9-0.1-10.4,0.3-11.2-0.3c0.1-0.4,0.7-0.7,0-1.1
	c-1-0.2-0.8-0.9-1.1-1.4c-0.6-0.5-5.2-1.8-4.8-2.5c-0.3-1.3-0.8-1.7-1.6-2.6c4.9-2.2,8.4-2.3,12-2.3c-6.2-0.8-19.4-0.4-19.9-0.5
	c2.1-1.5-2-1.9-0.8-3.1c-1.4-0.1-1.4-1-2.3-1.2v-0.1c0.8-0.1,1.6-0.4,2.4-0.7c4.4-1.4,8.2-2.3,17.1-1.8c-9.2-1.8-18.8-0.1-18.8-0.1
	c3.9-1,6.3-1.5,2.6-3.7c4.7-2.4,7.4-3.3,16.2-3.8c-5.3,0-12.7-0.7-13.5-1.5c0.9-0.4,2.2-0.4,2.2-0.4c2.6,0,3.7-1.6,0.7-2.5
	c4.7,0.4,4.4-1.7,3.2-2.3c2.4,0.1,1.7-0.3,0.9-0.6c2.5,0.3,3.5-0.5,5.7-0.5c-1.2-0.3-2.9-0.2-4.4-0.2c0.7,0,1.4-0.3,2.1-0.4
	c-1.2-0.2-2.6-0.3-3.9-0.2c0.9-0.3,1.1-0.4,2.4-0.5c0.9,0,18.7-0.5,22.5-0.6l-0.9-0.2c0.4-0.1,2.3-0.1,2.7-0.2l-0.4-0.2
	c0.4,0,4.7,0,5.9-0.1c-0.2-0.1-1-0.1-1.1-0.1l3.8-0.2c2.4-0.2,14,0.2,17.1-0.1c-0.7,0-1.4-0.2-2.2-0.2c2.1-0.1,21-0.3,21-0.3
	c-0.5,0-1.1,0.1-1.5,0.2c7.6,0.1,14.1,0.2,21.2,0.3c0,0-2,0.3-2.5,0.4c1.6,0,18.9-0.4,18.5,0.1c-0.5,0.1-0.5,0.3-0.2,0.5
	c-1.3,0.7-4.2,1.1-3.2,2.1c0,0,1.6,1.3-0.5,1.7c-0.1,0.3,0.2,0.4,0.7,0.5c0.4-0.3,2.9,0.7,2.9,0.7c-0.4,0.1-2,0.1-2.5,0.3
	c1.2,1.2,3.1,2,3.7,3.3c-1,0.1-2.7,1.4-3.4,1.5c1.9,0.1,1.5,0.6,2.8,1c-1.2,0.5-1.9,0.6-2.2,1.5c0.7,0.1,1.8-0.2,2-0.5
	c-0.3,0.7,2.1,0.6,2.1,0.6c-0.5,0.2-1.5,0.1-2.2,0.3l0.8,0.4c-0.2,0-0.8,0.1-0.9,0.1c1,0.3,0.9,1,1.3,1c1.5,0.3,3,1,3,1
	s-2.2,0.5-3.8,0.3C-118.8,395.3-119,396-120.2,396.1z"/>
</svg>
