<?xml version="1.0" encoding="utf-8"?>
<!-- Generator: Adobe Illustrator 19.0.0, SVG Export Plug-In . SVG Version: 6.00 Build 0)  -->
<svg version="1.1" id="Layer_1" xmlns="http://www.w3.org/2000/svg" xmlns:xlink="http://www.w3.org/1999/xlink" x="0px" y="0px"
	 viewBox="0 0 45 45" style="enable-background:new 0 0 45 45;" xml:space="preserve">
<style type="text/css">
	.st0{clip-path:url(#SVGID_2_);fill:url(#SVGID_3_);}
	.st1{clip-path:url(#SVGID_5_);fill:#FFFFFF;}
</style>
<g>
	<defs>
		<path id="SVGID_1_" d="M7.3,0C3.3,0,0,3.3,0,7.3v30.3c0,4,3.3,7.3,7.3,7.3h30.3c4,0,7.3-3.3,7.3-7.3V7.3c0-4-3.3-7.3-7.3-7.3H7.3z
			"/>
	</defs>
	<clipPath id="SVGID_2_">
		<use xlink:href="#SVGID_1_"  style="overflow:visible;"/>
	</clipPath>
	
		<radialGradient id="SVGID_3_" cx="0" cy="44.9996" r="1.0002" gradientTransform="matrix(30.9829 -44.5966 -44.5966 -30.9829 2014.1067 1438.6237)" gradientUnits="userSpaceOnUse">
		<stop  offset="0" style="stop-color:#FEC053"/>
		<stop  offset="0.3273" style="stop-color:#F2203E"/>
		<stop  offset="0.6485" style="stop-color:#B729A8"/>
		<stop  offset="1" style="stop-color:#5342D6"/>
	</radialGradient>
	<polygon class="st0" points="-21.1,30.4 14.6,-21.1 66.1,14.6 30.4,66.1 	"/>
</g>
<g>
	<defs>
		<path id="SVGID_4_" d="M6.6,0C2.9,0,0,2.9,0,6.6v31.9C0,42.1,2.9,45,6.6,45h31.9c3.6,0,6.6-2.9,6.6-6.6V6.6C45,2.9,42.1,0,38.4,0
			H6.6z"/>
	</defs>
	<clipPath id="SVGID_5_">
		<use xlink:href="#SVGID_4_"  style="overflow:visible;"/>
	</clipPath>
	<path class="st1" d="M30.5,41h-16C8.7,41,4,36.3,4,30.5v-16C4,8.7,8.7,4,14.5,4h16C36.3,4,41,8.7,41,14.5v16
		C41,36.3,36.3,41,30.5,41 M14.5,7.2c-4.1,0-7.4,3.3-7.4,7.4v16c0,4.1,3.3,7.4,7.4,7.4h16c4.1,0,7.4-3.3,7.4-7.4v-16
		c0-4.1-3.3-7.4-7.4-7.4H14.5z"/>
	<path class="st1" d="M22.5,32c-5.2,0-9.5-4.3-9.5-9.5s4.3-9.5,9.5-9.5s9.5,4.3,9.5,9.5S27.7,32,22.5,32 M22.5,16.2
		c-3.5,0-6.3,2.8-6.3,6.3c0,3.5,2.8,6.3,6.3,6.3c3.5,0,6.3-2.8,6.3-6.3C28.8,19,26,16.2,22.5,16.2"/>
	<path class="st1" d="M34.7,12.5c0,1.3-1,2.3-2.3,2.3c-1.3,0-2.3-1-2.3-2.3c0-1.3,1-2.3,2.3-2.3C33.7,10.2,34.7,11.2,34.7,12.5"/>
</g>
</svg>
