<?xml version="1.0" encoding="utf-8"?>
<!-- Generator: Adobe Illustrator 19.0.0, SVG Export Plug-In . SVG Version: 6.00 Build 0)  -->
<svg version="1.1" id="Layer_1" xmlns="http://www.w3.org/2000/svg" xmlns:xlink="http://www.w3.org/1999/xlink" x="0px" y="0px"
	 viewBox="0 0 45 45" style="enable-background:new 0 0 45 45;" xml:space="preserve">
<style type="text/css">
	.st0{clip-path:url(#SVGID_2_);fill:url(#SVGID_3_);}
	.st1{clip-path:url(#SVGID_5_);fill:#F18F00;}
	.st2{clip-path:url(#SVGID_5_);fill:#FFFFFF;}
</style>
<g>
	<defs>
		<path id="SVGID_1_" d="M6.7,0.1c-3.6,0-6.5,2.9-6.5,6.5v31.7c0,3.6,2.9,6.5,6.5,6.5h31.7c3.6,0,6.5-2.9,6.5-6.5V6.7
			c0-3.6-2.9-6.5-6.5-6.5H6.7z"/>
	</defs>
	<clipPath id="SVGID_2_">
		<use xlink:href="#SVGID_1_"  style="overflow:visible;"/>
	</clipPath>
	
		<linearGradient id="SVGID_3_" gradientUnits="userSpaceOnUse" x1="7.058047e-06" y1="45" x2="1" y2="45" gradientTransform="matrix(0 -44.7285 44.7285 0 -1990.2833 44.8643)">
		<stop  offset="0" style="stop-color:#E74B0B"/>
		<stop  offset="0.6493" style="stop-color:#EB6604"/>
		<stop  offset="1" style="stop-color:#ED7700"/>
	</linearGradient>
	<rect x="0.1" y="0.1" class="st0" width="44.7" height="44.7"/>
</g>
<g>
	<defs>
		<path id="SVGID_4_" d="M6.6,0C2.9,0,0,2.9,0,6.6v31.9C0,42.1,2.9,45,6.6,45h31.9c3.6,0,6.6-2.9,6.6-6.6V6.6C45,2.9,42.1,0,38.4,0
			H6.6z"/>
	</defs>
	<clipPath id="SVGID_5_">
		<use xlink:href="#SVGID_4_"  style="overflow:visible;"/>
	</clipPath>
	<path class="st1" d="M38.3,44.9v-0.1H6.7c-1.8,0-3.4-0.7-4.5-1.9c-1.2-1.2-1.9-2.7-1.9-4.5V6.7c0-1.8,0.7-3.4,1.9-4.5
		C3.3,1,4.9,0.3,6.7,0.3h31.7c1.8,0,3.4,0.7,4.5,1.9c1.2,1.2,1.9,2.7,1.9,4.5v31.7c0,1.8-0.7,3.4-1.9,4.5c-1.2,1.2-2.8,1.9-4.5,1.9
		V44.9V45c3.7,0,6.7-3,6.7-6.7V6.7C45,3,42,0,38.3,0H6.7C3,0,0,3,0,6.7v31.7C0,42,3,45,6.7,45h31.7V44.9z"/>
	<path class="st2" d="M22.5,23c4.5,0,8.1-3.6,8.1-8.1c0-4.5-3.6-8.1-8.1-8.1c-4.5,0-8.1,3.6-8.1,8.1C14.4,19.4,18,23,22.5,23
		 M22.5,11.5c1.9,0,3.4,1.5,3.4,3.4c0,1.8-1.5,3.4-3.4,3.4c-1.8,0-3.4-1.5-3.4-3.4C19.1,13.1,20.7,11.5,22.5,11.5"/>
	<path class="st2" d="M25.8,29.6c1.6-0.4,3.2-1,4.7-1.9c1.1-0.7,1.4-2.2,0.7-3.3c-0.7-1.1-2.2-1.4-3.3-0.7c-3.3,2.1-7.6,2.1-10.9,0
		c-1.1-0.7-2.6-0.4-3.3,0.7c-0.7,1.1-0.4,2.6,0.7,3.3c1.5,0.9,3.1,1.6,4.7,1.9l-4.5,4.5c-0.9,0.9-0.9,2.4,0,3.4
		c0.5,0.5,1.1,0.7,1.7,0.7c0.6,0,1.2-0.2,1.7-0.7l4.5-4.5l4.5,4.5c0.9,0.9,2.4,0.9,3.4,0c0.9-0.9,0.9-2.4,0-3.4L25.8,29.6z"/>
</g>
</svg>
