<?xml version="1.0" encoding="utf-8"?>
<!-- Generator: Adobe Illustrator 19.0.0, SVG Export Plug-In . SVG Version: 6.00 Build 0)  -->
<svg version="1.1" id="Layer_1" xmlns="http://www.w3.org/2000/svg" xmlns:xlink="http://www.w3.org/1999/xlink" x="0px" y="0px"
	 viewBox="252.5 354.8 566.9 85" style="enable-background:new 252.5 354.8 566.9 85;" xml:space="preserve">
<style type="text/css">
	.st0{fill:#05A535;}
</style>
<g>
	<path class="st0" d="M322.9,409.2c-3.6,3.2-8.2,4.8-12.7,4.8c-7.2,0-15.1-5.7-15.1-18.8c0-6.8,3.5-15.8,9.2-15.8
		c3.8,0,5.5,3.1,5.5,7.2c0,0.9-0.2,1.7-0.2,2.6c0,1.4,2.4,2.5,5.5,2.5c4.9,0,8-4,8-8.2c0-7.9-8.3-13.2-19.2-13.2
		c-14.6,0-25.2,12.5-25.2,27.1c0,15.2,11.2,27.5,25.1,27.5c14.8-0.2,19.7-11.4,20.2-14.1l0.2-1.2c0-0.6-0.1-0.9-0.4-0.9
		C323.6,408.7,323.3,408.9,322.9,409.2z"/>
	<path class="st0" d="M382.8,409c0,0.1,0.2-18.1,0.2-16.7c0-4.5-3.9-6.5-7.3-6.5h-0.1c-3.4,0-7.4,1.9-7.4,6.5c0,0.1,0,1.4,0.1,3.9
		s0.1,4,0.1,4.7h-7.1v-4.2c0-6.6-4.1-10.9-10.1-10.9c-3.6,0-8.6,3-8.6,5.4c0,1.5,4.2,0,4.2,10.7c0,0.7,0,2.4-0.1,5.1l-0.2,7.7
		c-0.1,2.4-0.1,3.7-0.1,3.7c0,4.7,3.9,6.4,7.6,6.6h0.1c3.6-0.1,7.6-1.9,7.6-6.6c0,0.4-0.3-9.6-0.3-9.1h7.1v4.8
		c0,6.6,4.1,10.8,10.1,10.8c3.7,0,8.7-2.8,8.7-5.3C387.1,418.3,382.8,419.5,382.8,409z"/>
	<path class="st0" d="M481.5,392.5c0-5-5.8-6.6-9.3-6.6h-0.1c-3.7,0-7.8,1.4-9,4.6l-5.5,10.6h-0.2l-5.1-10.7c-1.2-3.1-5-4.5-8.4-4.5
		h-0.1c-3.9,0-8.7,1.8-8.7,6.6c0,0.1,0.1,1.4,0.1,2.2c0,13.4-3,23.5-7,23.5c-1.2,0-1.9-1.7-1.9-5c-0.1-4,0.2-14.8,0.2-19v-1.7
		c0-4.6-4.1-6.6-7.6-6.6h-0.1c-3.2,0-7.4,1.8-7.6,6.3H411c-2.5-4.1-6-6.2-10.4-6.2c-8.9,0-14.5,9.1-14.5,19.5
		c0,9.8,5.1,19.7,14.1,19.7c4.8,0,8.6-2.7,11.4-8.1c1.7,5,8.6,8.2,15.6,8.2c7.8,0,18.6-1.9,20.9-19.9h0.4l5.3,13.4
		c0.6,1.4,1.9,2.3,3.5,2.3c3.4,0,5.6-5.3,10.6-18.7h0.2l-0.7,7.1v9.2c0,4.7,4,6.6,7.2,6.6h0.1c3.2,0,7.2-1.9,7.2-6.6
		c0-0.2-0.1-4.6-0.2-13.2L481.5,392.5z M402.5,412.4c-0.9-1.8-1.4-4.2-1.4-7c0-5.6,2.1-9.8,5.4-9.8s5.4,4.2,5.4,9.8
		c0,5.5-2,9.7-5.4,9.7C404.8,415.1,403.4,414.2,402.5,412.4z"/>
	<path class="st0" d="M523.3,409.1c0-0.7,0-3.6,0.2-8.7c0.1-5.1,0.3-7.8,0.3-8c0-4.5-4.1-6.5-7.6-6.5h-0.1c-3.4,0-7.6,1.9-7.6,6.5
		c0,0.1,0.1,2.4,0.1,6.9c0.1,4.5,0.1,7.3,0.1,8.3c0,4.4-2.5,7.6-4.2,7.6s-2.5-1.4-2.5-4.2v-14c0-6.6-4.6-10.9-10.7-10.9
		c-3.5,0-8.6,2.9-8.6,5.3c0,1.7,4.8,0,4.8,10.7v11.2c0,7,4.4,11.9,9.9,11.9c4.1,0,8.7-2.4,11.5-7.7h0.3c1.2,4.8,4.8,7.7,9.6,7.7
		c3.5,0,8.8-3,8.8-5.4C527.6,418.2,523.3,419.8,523.3,409.1z"/>
	<path class="st0" d="M575.9,402c2.5-0.9,4.7-3.4,4.7-6.8c0-7.5-9.1-9.6-16.8-9.6c-12,0-16.6,1.6-16.7,7v16.8
		c0,7.1,4.8,15.6,17.8,15.6c10,0,18.5-4.9,18.5-13.8C583.4,406.7,580.6,403.4,575.9,402z M567.6,397c0,2.5-1.5,3.8-4.5,3.8h-1.4
		v-7.2c0.4-0.1,0.9-0.2,1.6-0.2C566.1,393.4,567.6,394.6,567.6,397z M565.5,416.7c-2.4,0-3.6-1.7-3.8-5v-4.4
		c0.5-0.1,1.4-0.1,2.6-0.1c3.2,0,5.5,1.5,5.5,4.2C569.8,414.6,568.1,416.7,565.5,416.7z"/>
	<path class="st0" d="M620.4,412.3c-0.1-0.1-0.2-0.1-0.4-0.1s-0.4,0.1-0.6,0.2c-3.7,2.1-7.2,3.2-10.7,3.2c-5.3,0-8.7-2.1-10.2-6.2
		c2,0.4,4.2,0.5,6.4,0.5c8.1,0,16.2-2.7,16.2-11.6c0-5.8-6.2-12.5-16.9-12.5c-12.1,0-20.5,8.9-20.5,19.6c0,10.8,8.8,19.7,19.6,19.7
		s17.4-9.4,17.4-12C620.7,412.7,620.6,412.5,620.4,412.3z M601.7,394.6c0.6-0.4,1.2-0.6,1.7-0.6h0.2c0.1,0,0-0.1,0.2-0.1
		c2.2,0,3.7,1.5,3.7,3.5c0,3.6-2.7,5.8-7.7,5.8c-0.6,0-1.2,0-1.9-0.1C598.3,398.7,599.6,395.9,601.7,394.6z"/>
	<path class="st0" d="M657.4,412.3c-0.1-0.1-0.3-0.1-0.4-0.1c-0.2,0-0.4,0.1-0.6,0.2c-3.1,1.8-6.9,3.2-10.5,3.2
		c-5.3,0-10.3-3.1-10.3-12.1c0-5.1,2.2-9.6,5.3-9.6c2,0,3.5,2,3.5,5c0,0.8-0.1,1.5-0.1,2.1c0,1.2,1.5,2.1,5.2,2.1c4.1,0,7-3.7,7-7.2
		c0-6.6-7.7-10.1-16.1-10.1c-10.7,0.4-19.1,9-19.1,19.6c0,10.8,8.8,19.7,19.7,19.7c10.2,0,16.7-8.7,16.7-11.9
		C657.6,412.8,657.5,412.5,657.4,412.3z"/>
	<path class="st0" d="M694.1,412.3c-0.1-0.1-0.2-0.1-0.4-0.1s-0.4,0.1-0.6,0.2c-3.7,2.1-7.2,3.2-10.7,3.2c-5.3,0-8.7-2.1-10.2-6.2
		c2,0.4,4.2,0.5,6.4,0.5c8.1,0,16.2-2.7,16.2-11.6c0-5.8-6.2-12.5-16.9-12.5c-12.1,0-20.5,8.9-20.5,19.6c0,10.8,8.8,19.7,19.6,19.7
		s17.4-9.4,17.4-12C694.4,412.7,694.3,412.5,694.1,412.3z M675.4,394.6c0.6-0.4,1.2-0.6,1.7-0.6h0.2c0.1,0,0-0.1,0.2-0.1
		c2.2,0,3.7,1.5,3.7,3.5c0,3.6-2.7,5.8-7.7,5.8c-0.6,0-1.2,0-1.9-0.1C672,398.7,673.3,395.9,675.4,394.6z"/>
	<path class="st0" d="M734,403.3l0.1-10.5c0-4.2-3.4-6.2-6.9-6.5v-0.1c-3.2-0.4-6.4-0.6-9.5-0.6c-6.3,0-16.1-0.2-16.1,7.2
		c0-0.3-1.3,12.1-2.1,15c-3,11-6.3,11-6.3,12.2c0,1.9,3.2,5,7.5,5c6.5,0,10.4-4.1,12-12.4c0.6-3,1.2-9.3,1.7-18.7h5.1
		c0,1.4-0.1,4.2-0.1,8.1l-0.2,11.1c-0.1,3.4-0.1,5.2-0.1,5.3c0,4.8,4.1,6.4,7.6,6.6h0.1c3.6-0.1,7.6-1.9,7.6-6.6
		c0-0.1-0.1-2.4-0.2-6.8C734,407.1,734,404.3,734,403.3z"/>
	<path class="st0" d="M776.4,405.6c-0.1-10.9-8.8-19.6-20.2-19.6c-11.8,0-20.1,8.9-20.1,19.9c0,10.7,8.8,19.3,20.1,19.3
		C767.8,425.2,776.3,416.5,776.4,405.6z M750.3,405.6c0-6.6,1.8-11.4,5.9-11.4c3.9,0,6,4.8,6,11.4c0,7.6-2.2,11.4-6,11.4
		C752.1,417,750.3,412.1,750.3,405.6z"/>
	<path class="st0" d="M792.4,417.7c0-3.8-3.1-7.1-7.1-7.1s-7.1,3.2-7.1,7.1c0,4,3.1,7.1,7.1,7.1
		C789.3,424.9,792.4,421.7,792.4,417.7z M793.2,380.4c0-6.7-4-11-10-11c-3.5,0-8.7,3-8.7,5.3c0,1.6,4.1,0.3,4.2,10.7
		c0.1,6.9,1.4,22.2,6.3,22.2C790.8,407.7,793.2,389.4,793.2,380.4z"/>
</g>
</svg>
