<?xml version="1.0" encoding="utf-8"?>
<!-- Generator: Adobe Illustrator 19.0.0, SVG Export Plug-In . SVG Version: 6.00 Build 0)  -->
<svg version="1.1" id="Layer_1" xmlns="http://www.w3.org/2000/svg" xmlns:xlink="http://www.w3.org/1999/xlink" x="0px" y="0px"
	 viewBox="0 0 45 45" style="enable-background:new 0 0 45 45;" xml:space="preserve">
<style type="text/css">
	.st0{clip-path:url(#SVGID_2_);fill-rule:evenodd;clip-rule:evenodd;fill:#4E75A2;}
	.st1{clip-path:url(#SVGID_2_);fill-rule:evenodd;clip-rule:evenodd;fill:#FFFFFF;}
</style>
<g>
	<defs>
		<path id="SVGID_1_" d="M6.6,0C2.9,0,0,2.9,0,6.6v31.9C0,42.1,2.9,45,6.6,45h31.9c3.6,0,6.6-2.9,6.6-6.6V6.6C45,2.9,42.1,0,38.4,0
			H6.6z"/>
	</defs>
	<clipPath id="SVGID_2_">
		<use xlink:href="#SVGID_1_"  style="overflow:visible;"/>
	</clipPath>
	<path class="st0" d="M38,0.2c3.8,0,6.9,3.1,6.9,6.9l0,31c0,3.8-3.1,6.9-6.9,6.9H7c-3.8,0-6.9-3.1-6.9-6.9v-31
		c0-3.8,3.1-6.9,6.9-6.9H38z"/>
	<path class="st1" d="M32.7,23c0,0,3.9-5.5,4.3-7.3c0.1-0.6-0.2-1-0.8-1c0,0-2.2,0-3.4,0c-0.8,0-1.1,0.3-1.3,0.8c0,0-1.8,3.9-4,6.3
		c-0.7,0.8-1.1,1-1.5,1c-0.3,0-0.5-0.3-0.5-1v-6.2c0-0.9-0.1-1.1-0.8-1.1h-5.4c-0.4,0-0.7,0.2-0.7,0.6c0,0.8,1.3,1,1.3,3.2v4.6
		c0,0.9-0.1,1.3-0.5,1.3c-1.2,0-3.9-4-5.4-8.5c-0.3-0.9-0.6-1.2-1.5-1.2H9.1c-0.5,0-0.8,0.3-0.8,0.8c0,0.9,1.1,5.1,5.2,10.6
		c2.8,3.7,6.4,5.8,9.7,5.8c2,0,2.5-0.3,2.5-1.2v-2.9c0-0.7,0.3-1,0.7-1c0.5,0,1.3,0.1,3.2,2c2.3,2.2,2.4,3.1,3.6,3.1h3.8
		c0.4,0,0.7-0.2,0.7-0.8c0-0.8-1.1-2.4-2.8-4.2c-0.7-0.9-1.8-1.9-2.2-2.4C32.2,23.9,32.3,23.6,32.7,23"/>
</g>
</svg>
